<svg xmlns="http://www.w3.org/2000/svg" viewBox="0 0 526.1 361"><defs><linearGradient id="b" x1=".4" x2="1" y1=".4" y2=".4" gradientUnits="objectBoundingBox"><stop offset="0" stop-color="#c61b20"/><stop offset="1" stop-color="#d0272d"/></linearGradient><linearGradient id="c" x1="1.1" x2=".3" y1=".5" y2=".5" gradientUnits="objectBoundingBox"><stop offset="0" stop-color="#faa584"/><stop offset=".5" stop-color="#f04837"/><stop offset="1" stop-color="#b52025"/></linearGradient><filter id="a" width="328.3" height="328.3" x="98.2" y="32.7" filterUnits="userSpaceOnUse"><feOffset input="SourceAlpha"/><feGaussianBlur result="blur" stdDeviation="12"/><feFlood flood-color="#a7a7a7" flood-opacity=".2"/><feComposite in2="blur" operator="in"/><feComposite in="SourceGraphic"/></filter></defs><g data-name="Group 22872" transform="translate(-6961.5 -1842.1)"><path d="M7236 1872.9c-90 56.5-70.4 66.2-142.9 77.6s-185 37.9-102.7 214c194 6 487.5 0 487.5 0s29.3-19.2-13.7-86 27-109.7-21.1-172.2-117.2-90-207.2-33.4Z" fill="#f7f7f7" data-name="Path 27251"/><g data-name="Group 18559"><g filter="url(#a)" transform="translate(6961.5 1842.1)"><g fill="none" stroke="#d82b1b" stroke-width="1" data-name="Ellipse 1358" opacity=".1" transform="translate(134.2 68.7)"><circle cx="128.2" cy="128.2" r="128.2" stroke="none"/><circle fill="none" cx="128.2" cy="128.2" r="127.7"/></g></g><g fill="none" stroke="#d82b1b" stroke-width="1" data-name="Ellipse 1359" opacity=".1" transform="translate(7119.8 1936.7)"><ellipse cx="103.6" cy="102.7" stroke="none" rx="103.6" ry="102.7"/><ellipse fill="none" cx="103.6" cy="102.7" rx="103.1" ry="102.2"/></g><g fill="none" stroke="#d82b1b" stroke-width="1" data-name="Ellipse 1360" opacity=".4" transform="translate(7145.7 1961.7)"><ellipse cx="77.7" cy="77.3" stroke="none" rx="77.7" ry="77.3"/><ellipse fill="none" cx="77.7" cy="77.3" rx="77.2" ry="76.8"/></g></g><path d="m7034.9 1917.8-.6 2.3a13.4 13.4 0 0 0-2.1-.5 15.4 15.4 0 0 0-2.3-.1 4.6 4.6 0 0 0-2.3.4 1.5 1.5 0 0 0-.8 1.4 1.4 1.4 0 0 0 .4 1 3.6 3.6 0 0 0 1.3.8l2.4.8a8.8 8.8 0 0 1 3.6 1.7 3.6 3.6 0 0 1 1.1 2.8 3.8 3.8 0 0 1-1.7 3.3 8.4 8.4 0 0 1-4.8 1.2 18.5 18.5 0 0 1-2-.1 19.6 19.6 0 0 1-2-.4 12.8 12.8 0 0 1-1.9-.5l.6-2.3a16.3 16.3 0 0 0 2.7.7 16.9 16.9 0 0 0 2.7.2 4.8 4.8 0 0 0 2.5-.5 1.6 1.6 0 0 0 .8-1.4 1.3 1.3 0 0 0-.5-1 5 5 0 0 0-1.5-.8l-2.7-.9a7.6 7.6 0 0 1-3.2-1.7 3.8 3.8 0 0 1-1-2.7 4 4 0 0 1 1.6-3.2 7.3 7.3 0 0 1 4.7-1.3 17 17 0 0 1 2.8.3 16.9 16.9 0 0 1 2.2.5Zm1.9 8.9a9.8 9.8 0 0 1 .5-3.4 3.9 3.9 0 0 1 1.7-2 6.7 6.7 0 0 1 3.4-.8 6.6 6.6 0 0 1 3.3.7 3.9 3.9 0 0 1 1.7 2.1 9.8 9.8 0 0 1 .5 3.4 7.3 7.3 0 0 1-1.2 4.6q-1.3 1.6-4.3 1.6-3.1 0-4.4-1.6a7.3 7.3 0 0 1-1.2-4.6Zm3 0a5.8 5.8 0 0 0 .6 3 2.2 2.2 0 0 0 2 1 2.2 2.2 0 0 0 2-1 5.7 5.7 0 0 0 .5-3 6 6 0 0 0-.6-3 2.2 2.2 0 0 0-2-1 2.2 2.2 0 0 0-2 1 6 6 0 0 0-.5 3Zm16 6v-15.4h3.1l4.2 7.7 4.2-7.7h3v15.4h-2.7v-11.2l-3.9 7h-1.4l-3.7-7v11.2Zm20.3.2a3.5 3.5 0 0 1-2.4-.9 3.3 3.3 0 0 1-1-2.6v-8.6h3v8a1.5 1.5 0 0 0 1.6 1.6 3.7 3.7 0 0 0 1.2-.2 10.4 10.4 0 0 0 1.3-.5v-9h2.9v8.7a1.3 1.3 0 0 0 .2.8.6.6 0 0 0 .5.2 1.4 1.4 0 0 0 .5-.1l.2 2a3.7 3.7 0 0 1-.9.4 4 4 0 0 1-1 .2 2 2 0 0 1-2-1.3 10.7 10.7 0 0 1-2 1 6.2 6.2 0 0 1-2 .3Zm8.7-6a6.6 6.6 0 0 1 1.6-4.8 5.9 5.9 0 0 1 4.4-1.6 17 17 0 0 1 2 .2 11.5 11.5 0 0 1 1.8.3l-.4 2.3-1.6-.3a13.9 13.9 0 0 0-1.5 0 3.3 3.3 0 0 0-2.4.8 4.3 4.3 0 0 0-.9 3 3.8 3.8 0 0 0 .9 3 3.5 3.5 0 0 0 2.4.7 14.4 14.4 0 0 0 1.6 0l1.6-.4.5 2.2a16.3 16.3 0 0 1-2 .4 17 17 0 0 1-2.3.2 5.7 5.7 0 0 1-4.3-1.5 6.3 6.3 0 0 1-1.4-4.5Zm11.6 5.8v-16.3h3v5.3a9 9 0 0 1 1.8-.9 6 6 0 0 1 2-.3 3.5 3.5 0 0 1 2.5.9 3.4 3.4 0 0 1 .9 2.5v8.8h-3v-7.9q0-1.8-1.7-1.8a4 4 0 0 0-1.3.2 10.4 10.4 0 0 0-1.3.5v9Zm-80.9 18.5q0-4.4 1.8-6.3a7.2 7.2 0 0 1 5.5-1.9 17 17 0 0 1 2.4.2 15.7 15.7 0 0 1 2.1.5l-.6 2.4a16.7 16.7 0 0 0-1.8-.4 14.3 14.3 0 0 0-1.8 0 5.3 5.3 0 0 0-2.5.4 3.3 3.3 0 0 0-1.5 1.8 9.1 9.1 0 0 0-.5 3.3 8 8 0 0 0 .5 3 3 3 0 0 0 1.4 1.6 5.4 5.4 0 0 0 2.4.5 16.4 16.4 0 0 0 2.1-.1 14.6 14.6 0 0 0 2-.4l.6 2.3a15.5 15.5 0 0 1-2.3.6 18.6 18.6 0 0 1-2.8.2 8.7 8.7 0 0 1-3.9-.8 4.9 4.9 0 0 1-2.3-2.4 10.8 10.8 0 0 1-.8-4.5Zm12.9 1.5a9.8 9.8 0 0 1 .5-3.4 3.9 3.9 0 0 1 1.7-2 6.7 6.7 0 0 1 3.4-.8 6.6 6.6 0 0 1 3.3.7 3.9 3.9 0 0 1 1.7 2.1 9.8 9.8 0 0 1 .5 3.4 7.3 7.3 0 0 1-1.2 4.6q-1.3 1.6-4.3 1.6-3.1 0-4.4-1.6a7.3 7.3 0 0 1-1.2-4.6Zm3 0a5.8 5.8 0 0 0 .6 3 2.2 2.2 0 0 0 2 1 2.2 2.2 0 0 0 1.9-1 5.7 5.7 0 0 0 .6-3 6 6 0 0 0-.6-3 2.2 2.2 0 0 0-2-1 2.2 2.2 0 0 0-2 1 6 6 0 0 0-.5 3Zm12.7 6-4.2-12h3l3 9.3 2.7-9.3h3l-4.2 12Zm13.6.2a5.7 5.7 0 0 1-4.2-1.4 6 6 0 0 1-1.4-4.5 8 8 0 0 1 .7-3.8 4.6 4.6 0 0 1 2.1-2 6.8 6.8 0 0 1 3-.7 4.8 4.8 0 0 1 3.7 1.3 5.9 5.9 0 0 1 1.2 4v1.2l-2 .1-2.6.2-3 .1a.7.7 0 0 0 0 .2v.1a2.7 2.7 0 0 0 .7 2.2 3.5 3.5 0 0 0 2.3.7 13.3 13.3 0 0 0 2-.2l2-.4.4 2.1a12.4 12.4 0 0 1-2.3.6 18.8 18.8 0 0 1-2.6.2Zm-2.6-7.4h2.9q1.3 0 1.8-.2a3.3 3.3 0 0 0-.6-2 2 2 0 0 0-1.5-.7 2.7 2.7 0 0 0-1.2.3 2 2 0 0 0-.9.8 4.3 4.3 0 0 0-.5 1.8Zm12.1-4.7v1.4a7.4 7.4 0 0 1 1.7-1.3 3.9 3.9 0 0 1 1.8-.4 5.3 5.3 0 0 1 1.6.3l-.5 2.6a6.6 6.6 0 0 0-1.6-.2 3.9 3.9 0 0 0-1.3.3 5.1 5.1 0 0 0-1.4.8v8.4h-3v-12Zm5.1 8.7a3 3 0 0 1 .8-2.2 4.6 4.6 0 0 1 2.3-1.1 31.5 31.5 0 0 1 4-.6v-1a1.4 1.4 0 0 0-.6-1.2 3.2 3.2 0 0 0-1.8-.4 13.6 13.6 0 0 0-1.6.1 12 12 0 0 0-2 .4l-.4-2.3a14.9 14.9 0 0 1 2-.5 13.5 13.5 0 0 1 2.2-.2 5.8 5.8 0 0 1 3.8 1 3.8 3.8 0 0 1 1.2 3.1v4.6a1.4 1.4 0 0 0 .2 1 .6.6 0 0 0 .5.1 1.7 1.7 0 0 0 .2 0 1.7 1.7 0 0 0 .3 0l.3 2a4.1 4.1 0 0 1-.9.4 3.6 3.6 0 0 1-1 .2 2 2 0 0 1-2.2-1.6 8.8 8.8 0 0 1-1.8 1.1 5.7 5.7 0 0 1-2.3.5 3 3 0 0 1-2.3-1 3.4 3.4 0 0 1-.9-2.4Zm2.8-.2a1.6 1.6 0 0 0 .4 1.2 1.4 1.4 0 0 0 1 .4 4 4 0 0 0 1.5-.3 4 4 0 0 0 1.4-.9v-2.5a18 18 0 0 0-2.3.3 3.3 3.3 0 0 0-1.4.6 1.5 1.5 0 0 0-.6 1.2Zm14.5-.8a8 8 0 0 1-2.1-.3 1.2 1.2 0 0 0-.6 1q0 1 1.5 1h3.6a4.1 4.1 0 0 1 2.8.8 2.9 2.9 0 0 1 1 2.4 3.4 3.4 0 0 1-1.7 3 8.7 8.7 0 0 1-4.7 1q-5.3 0-5.3-3a2.8 2.8 0 0 1 1.5-2.5 2.2 2.2 0 0 1-1-1.9 2.5 2.5 0 0 1 .5-1.4 3.4 3.4 0 0 1 1-1 3.6 3.6 0 0 1-1.3-3q0-4 4.9-4a6.6 6.6 0 0 1 3 .5 2.4 2.4 0 0 1 2.2-1.1 4 4 0 0 1 1 .1l-.3 2.3a2.9 2.9 0 0 0-.7-.1 1.3 1.3 0 0 0-.8.2 4.3 4.3 0 0 1 .4 2 3.6 3.6 0 0 1-1.2 3 5.7 5.7 0 0 1-3.7 1Zm0-2a2.3 2.3 0 0 0 1.6-.4 2 2 0 0 0 .5-1.6 2.1 2.1 0 0 0-.5-1.6 2.2 2.2 0 0 0-1.6-.5 2.2 2.2 0 0 0-1.5.5 2.2 2.2 0 0 0-.5 1.6 2 2 0 0 0 .5 1.6 2.2 2.2 0 0 0 1.5.5Zm-3 7.3a1.3 1.3 0 0 0 .6 1.2 5 5 0 0 0 2.4.4 5.6 5.6 0 0 0 2.5-.4 1.4 1.4 0 0 0 .9-1.3.9.9 0 0 0-.4-.8 3.1 3.1 0 0 0-1.5-.3h-2.6a7.7 7.7 0 0 1-1.3 0 1.9 1.9 0 0 0-.5.5 1.3 1.3 0 0 0-.2.7Zm15.3-1a5.7 5.7 0 0 1-4-1.3 6 6 0 0 1-1.5-4.5 8 8 0 0 1 .7-3.8 4.6 4.6 0 0 1 2.1-2 6.8 6.8 0 0 1 3-.7 4.8 4.8 0 0 1 3.7 1.3 5.9 5.9 0 0 1 1.1 4v1.2l-1.9.1-2.6.2-3 .1a.7.7 0 0 0-.1.2v.1a2.7 2.7 0 0 0 .8 2.2 3.5 3.5 0 0 0 2.3.7 13.3 13.3 0 0 0 2-.2l2-.4.4 2.1a12.4 12.4 0 0 1-2.3.6 18.8 18.8 0 0 1-2.7.2Zm-2.5-7.3h2.9q1.3 0 1.8-.2a3.3 3.3 0 0 0-.6-2 2 2 0 0 0-1.5-.6 2.7 2.7 0 0 0-1.2.2 2 2 0 0 0-.9.8 4.3 4.3 0 0 0-.5 1.8Z" fill="#e21f26" data-name="Path 28750"/><circle fill="#e21f26" cx="7" cy="7" r="7" data-name="Ellipse 1560" transform="translate(7123.3 1944.7)"/><circle fill="#e21f26" cx="7" cy="7" r="7" data-name="Ellipse 1563" transform="translate(7088.7 2039)"/><circle fill="#e21f26" cx="7" cy="7" r="7" data-name="Ellipse 1561" transform="translate(7304.3 1937.7)"/><circle fill="#e21f26" cx="7" cy="7" r="7" data-name="Ellipse 1562" transform="translate(7340.3 2063.7)"/><path d="m7352.3 1931.8-.5 2.3a13.4 13.4 0 0 0-2.1-.5 15.4 15.4 0 0 0-2.4-.1 4.6 4.6 0 0 0-2.2.4 1.5 1.5 0 0 0-.9 1.4 1.4 1.4 0 0 0 .4 1 3.6 3.6 0 0 0 1.3.8l2.5.8a8.8 8.8 0 0 1 3.6 1.7 3.6 3.6 0 0 1 1 2.8 3.8 3.8 0 0 1-1.6 3.3 8.4 8.4 0 0 1-4.9 1.2 18.5 18.5 0 0 1-2-.1 19.6 19.6 0 0 1-2-.4 12.8 12.8 0 0 1-1.8-.5l.6-2.3a16.3 16.3 0 0 0 2.7.7 16.9 16.9 0 0 0 2.7.2 4.8 4.8 0 0 0 2.4-.5 1.6 1.6 0 0 0 .8-1.4 1.3 1.3 0 0 0-.4-1 5 5 0 0 0-1.6-.8l-2.6-.9a7.6 7.6 0 0 1-3.2-1.7 3.8 3.8 0 0 1-1-2.7 4 4 0 0 1 1.5-3.2 7.3 7.3 0 0 1 4.7-1.3 17 17 0 0 1 2.8.3 16.9 16.9 0 0 1 2.2.5Zm2 8.9a9.8 9.8 0 0 1 .5-3.4 3.9 3.9 0 0 1 1.7-2 6.7 6.7 0 0 1 3.3-.8 6.6 6.6 0 0 1 3.3.7 3.9 3.9 0 0 1 1.8 2.1 9.8 9.8 0 0 1 .5 3.4 7.3 7.3 0 0 1-1.3 4.6q-1.2 1.6-4.3 1.6-3 0-4.3-1.6a7.3 7.3 0 0 1-1.3-4.6Zm3 0a5.8 5.8 0 0 0 .5 3 2.2 2.2 0 0 0 2 1 2.2 2.2 0 0 0 2-1 5.7 5.7 0 0 0 .5-3 6 6 0 0 0-.5-3 2.2 2.2 0 0 0-2-1 2.2 2.2 0 0 0-2 1 6 6 0 0 0-.5 3Zm16 6v-15.4h3.1l4.2 7.7 4.2-7.7h3v15.4h-2.8v-11.2l-3.8 7h-1.4l-3.8-7v11.2Zm20.3.2a3.5 3.5 0 0 1-2.5-.9 3.3 3.3 0 0 1-1-2.6v-8.6h3v8a1.5 1.5 0 0 0 1.7 1.6 3.7 3.7 0 0 0 1.2-.2 10.4 10.4 0 0 0 1.2-.5v-9h3v8.7a1.3 1.3 0 0 0 .1.8.6.6 0 0 0 .5.2 1.4 1.4 0 0 0 .5-.1l.3 2a3.7 3.7 0 0 1-1 .4 4 4 0 0 1-1 .2 2 2 0 0 1-2-1.3 10.7 10.7 0 0 1-2 1 6.2 6.2 0 0 1-2 .3Zm8.7-6a6.6 6.6 0 0 1 1.5-4.8 5.9 5.9 0 0 1 4.4-1.6 17 17 0 0 1 2 .2 11.5 11.5 0 0 1 1.8.3l-.4 2.3-1.6-.3a13.9 13.9 0 0 0-1.5 0 3.3 3.3 0 0 0-2.4.8 4.3 4.3 0 0 0-.8 3 3.8 3.8 0 0 0 .8 3 3.5 3.5 0 0 0 2.5.7 14.4 14.4 0 0 0 1.6 0l1.6-.4.5 2.2a16.3 16.3 0 0 1-2.1.4 17 17 0 0 1-2.2.2 5.7 5.7 0 0 1-4.3-1.5 6.3 6.3 0 0 1-1.4-4.5Zm11.5 5.8v-16.3h3v5.3a9 9 0 0 1 1.9-.9 6 6 0 0 1 1.9-.3 3.5 3.5 0 0 1 2.5.9 3.4 3.4 0 0 1 1 2.5v8.8h-3v-7.9q0-1.8-1.8-1.8a4 4 0 0 0-1.2.2 10.4 10.4 0 0 0-1.3.6v8.9Zm-72.7 18.5q0-4.4 1.8-6.3a7.2 7.2 0 0 1 5.5-1.9 17 17 0 0 1 2.4.2 15.7 15.7 0 0 1 2.1.5l-.6 2.4a16.7 16.7 0 0 0-1.8-.4 14.3 14.3 0 0 0-1.8 0 5.3 5.3 0 0 0-2.6.4 3.3 3.3 0 0 0-1.4 1.8 9.1 9.1 0 0 0-.5 3.3 8 8 0 0 0 .5 3 3 3 0 0 0 1.4 1.6 5.4 5.4 0 0 0 2.4.5 16.4 16.4 0 0 0 2.1-.1 14.6 14.6 0 0 0 2-.4l.6 2.3a15.5 15.5 0 0 1-2.3.6 18.6 18.6 0 0 1-2.9.2 8.7 8.7 0 0 1-3.8-.8 4.9 4.9 0 0 1-2.3-2.4 10.8 10.8 0 0 1-.8-4.5Zm13.9 7.5v-16.3h3v5.3a9 9 0 0 1 1.8-.9 6 6 0 0 1 1.9-.3 3.5 3.5 0 0 1 2.5.9 3.4 3.4 0 0 1 1 2.5v8.8h-3v-7.9q0-1.8-1.7-1.8a4 4 0 0 0-1.3.2 10.4 10.4 0 0 0-1.3.6v8.9Zm12-6a9.8 9.8 0 0 1 .5-3.4 3.9 3.9 0 0 1 1.7-2 6.7 6.7 0 0 1 3.3-.8 6.6 6.6 0 0 1 3.3.7 3.9 3.9 0 0 1 1.7 2.1 9.8 9.8 0 0 1 .6 3.4 7.3 7.3 0 0 1-1.3 4.6q-1.2 1.6-4.3 1.6-3 0-4.3-1.6a7.3 7.3 0 0 1-1.3-4.6Zm3 0a5.8 5.8 0 0 0 .5 3 2.2 2.2 0 0 0 2 1 2.2 2.2 0 0 0 2-1 5.7 5.7 0 0 0 .5-3 6 6 0 0 0-.5-3 2.2 2.2 0 0 0-2-1 2.2 2.2 0 0 0-2 1 6 6 0 0 0-.5 3Zm11.4-7.6a2 2 0 0 1-1.4-.4 1.4 1.4 0 0 1-.4-1.1 1.4 1.4 0 0 1 .4-1.2 2.7 2.7 0 0 1 2.7 0 1.4 1.4 0 0 1 .4 1.2 1.4 1.4 0 0 1-.4 1 2 2 0 0 1-1.3.5Zm-1.5 13.6v-12h3v12Zm4.7-5.8a6.6 6.6 0 0 1 1.6-4.8 5.9 5.9 0 0 1 4.4-1.6 17 17 0 0 1 2 .2 11.5 11.5 0 0 1 1.8.3l-.4 2.3-1.6-.3a13.9 13.9 0 0 0-1.5 0 3.3 3.3 0 0 0-2.4.8 4.3 4.3 0 0 0-.9 3 3.8 3.8 0 0 0 .9 3 3.5 3.5 0 0 0 2.4.7 14.4 14.4 0 0 0 1.6 0l1.7-.4.4 2.2a16.3 16.3 0 0 1-2 .4 17 17 0 0 1-2.3.2 5.7 5.7 0 0 1-4.3-1.5 6.3 6.3 0 0 1-1.4-4.5Zm16.4 6a5.7 5.7 0 0 1-4-1.4 6 6 0 0 1-1.5-4.5 8 8 0 0 1 .7-3.8 4.6 4.6 0 0 1 2.1-2 6.8 6.8 0 0 1 3-.7 4.8 4.8 0 0 1 3.7 1.3 5.9 5.9 0 0 1 1.2 4v1.2l-2 .1-2.6.2-3 .1a.7.7 0 0 0-.1.2v.1a2.7 2.7 0 0 0 .8 2.2 3.5 3.5 0 0 0 2.3.7 13.3 13.3 0 0 0 2-.2l2-.4.4 2.1a12.4 12.4 0 0 1-2.3.6 18.8 18.8 0 0 1-2.7.2Zm-2.5-7.4h2.9q1.3 0 1.8-.2a3.3 3.3 0 0 0-.6-2 2 2 0 0 0-1.5-.6 2.7 2.7 0 0 0-1.2.2 2 2 0 0 0-.9.8 4.3 4.3 0 0 0-.5 1.8Z" fill="#e21f26" data-name="Path 29177"/><path d="m6995.5 2038-.5 2.4a13.4 13.4 0 0 0-2.2-.4 15.4 15.4 0 0 0-2.3-.2 4.6 4.6 0 0 0-2.2.5 1.5 1.5 0 0 0-.9 1.3 1.4 1.4 0 0 0 .4 1 3.6 3.6 0 0 0 1.3.8l2.5.8a8.8 8.8 0 0 1 3.6 1.7 3.6 3.6 0 0 1 1 2.8 3.8 3.8 0 0 1-1.6 3.3 8.4 8.4 0 0 1-5 1.2 18.5 18.5 0 0 1-1.8-.1 19.6 19.6 0 0 1-2-.3 12.8 12.8 0 0 1-2-.6l.7-2.3a16.3 16.3 0 0 0 2.7.7 16.9 16.9 0 0 0 2.7.2 4.8 4.8 0 0 0 2.4-.5 1.6 1.6 0 0 0 .8-1.4 1.3 1.3 0 0 0-.5-1 5 5 0 0 0-1.5-.8l-2.7-.8a7.6 7.6 0 0 1-3.1-1.8 3.8 3.8 0 0 1-1-2.7 4 4 0 0 1 1.5-3.2 7.3 7.3 0 0 1 4.7-1.2 17 17 0 0 1 2.8.2 16.9 16.9 0 0 1 2.2.5Zm2 9a9.8 9.8 0 0 1 .4-3.4 3.9 3.9 0 0 1 1.8-2 6.7 6.7 0 0 1 3.3-.7 6.6 6.6 0 0 1 3.3.7 3.9 3.9 0 0 1 1.7 2 9.8 9.8 0 0 1 .5 3.4 7.3 7.3 0 0 1-1.2 4.6q-1.2 1.6-4.3 1.6-3 0-4.3-1.6a7.3 7.3 0 0 1-1.3-4.6Zm3 0a5.8 5.8 0 0 0 .5 3 2.2 2.2 0 0 0 2 1 2.2 2.2 0 0 0 2-1 5.7 5.7 0 0 0 .5-3 6 6 0 0 0-.5-3 2.2 2.2 0 0 0-2-.9 2.2 2.2 0 0 0-2 .9 6 6 0 0 0-.5 3Zm16 6v-15.4h3l4.3 7.7 4.2-7.7h3v15.4h-2.8v-11.2l-3.8 7h-1.4l-3.8-7v11.2Zm20.3.2a3.5 3.5 0 0 1-2.5-.8 3.3 3.3 0 0 1-1-2.7v-8.6h3v8a1.5 1.5 0 0 0 1.6 1.7 3.7 3.7 0 0 0 1.3-.2 10.4 10.4 0 0 0 1.2-.6v-9h3v8.7a1.3 1.3 0 0 0 .1.8.6.6 0 0 0 .5.2 1.4 1.4 0 0 0 .5 0l.3 2a3.7 3.7 0 0 1-1 .4 4 4 0 0 1-1 0 2 2 0 0 1-2-1.1 10.7 10.7 0 0 1-2 .9 6.2 6.2 0 0 1-2 .3Zm8.7-6a6.6 6.6 0 0 1 1.5-4.8 5.9 5.9 0 0 1 4.4-1.5 17 17 0 0 1 2 0 11.5 11.5 0 0 1 1.8.4l-.4 2.3-1.6-.3a13.9 13.9 0 0 0-1.5 0 3.3 3.3 0 0 0-2.4.8 4.3 4.3 0 0 0-.8 3 3.8 3.8 0 0 0 .8 3 3.5 3.5 0 0 0 2.5.7 14.4 14.4 0 0 0 1.5 0l1.7-.3.5 2.1a16.3 16.3 0 0 1-2.1.4 17 17 0 0 1-2.2.2 5.7 5.7 0 0 1-4.3-1.5 6.3 6.3 0 0 1-1.4-4.5Zm11.5 5.8v-16.3h3v5.3a9 9 0 0 1 1.8-.8 6 6 0 0 1 2-.3 3.5 3.5 0 0 1 2.5.8 3.4 3.4 0 0 1 1 2.5v8.8h-3v-7.9q0-1.8-1.8-1.8a4 4 0 0 0-1.2.2 10.4 10.4 0 0 0-1.3.6v8.9Zm-28.5 13.2h-4.6v12.8h-3v-12.8h-4.7v-2.6h12.3Zm3.2.9v1.4a7.4 7.4 0 0 1 1.7-1.3 3.9 3.9 0 0 1 1.7-.3 5.3 5.3 0 0 1 1.6.2l-.5 2.6a6.6 6.6 0 0 0-1.5-.2 3.9 3.9 0 0 0-1.3.3 5.1 5.1 0 0 0-1.5.8v8.4h-2.9v-12Zm9.7 12a3.5 3.5 0 0 1-2.5-.7 3.3 3.3 0 0 1-1-2.7v-8.6h3v8a1.5 1.5 0 0 0 1.6 1.7 3.7 3.7 0 0 0 1.3-.2 10.4 10.4 0 0 0 1.2-.6v-9h3v8.7a1.3 1.3 0 0 0 0 .8.6.6 0 0 0 .6.2 1.4 1.4 0 0 0 .5 0l.2 2a3.7 3.7 0 0 1-.9.4 4 4 0 0 1-1 0 2 2 0 0 1-2-1.1 10.7 10.7 0 0 1-2 .9 6.2 6.2 0 0 1-2 .3Zm8.6-.6.3-2.1a10 10 0 0 0 2 .4 13.5 13.5 0 0 0 2 .2 3 3 0 0 0 1.6-.3 1 1 0 0 0 .4-1 1.1 1.1 0 0 0-.7-1 14.3 14.3 0 0 0-2.3-.7 4.5 4.5 0 0 1-2.3-1.2 3.1 3.1 0 0 1-.8-2.2q0-3.7 4.8-3.7a11.4 11.4 0 0 1 2 .1 11.8 11.8 0 0 1 1.6.4l-.4 2.2a12.7 12.7 0 0 0-1.4-.3 10 10 0 0 0-1.8-.2q-2 0-2 1.2a1 1 0 0 0 .7 1 14.5 14.5 0 0 0 2 .5 9.5 9.5 0 0 1 1.8.7 3.2 3.2 0 0 1 1.3 1 3.3 3.3 0 0 1 .4 2 3.4 3.4 0 0 1-.6 2.1 3.8 3.8 0 0 1-1.8 1.2 8 8 0 0 1-2.5.4 14.6 14.6 0 0 1-2.3-.2 10.7 10.7 0 0 1-2-.5Zm15 .7a3.3 3.3 0 0 1-2.7-1 4.6 4.6 0 0 1-.8-3v-6h-1.9v-2l1.9-.1.3-2.7h2.6v2.7h3.4v2.1h-3.4v5.7a2.1 2.1 0 0 0 .4 1.4 1.5 1.5 0 0 0 1.1.4 5.3 5.3 0 0 0 1 0l.9-.3.4 2.2a9.2 9.2 0 0 1-1.7.5 10.7 10.7 0 0 1-1.6 0Z" fill="#e21f26" data-name="Path 28751"/><path d="m7372.6 2065.4-.6 2.2a12.2 12.2 0 0 0-1.9-.5 14 14 0 0 0-2-.1 4.2 4.2 0 0 0-2.1.4 1.3 1.3 0 0 0-.8 1.2 1.3 1.3 0 0 0 .4 1 3.2 3.2 0 0 0 1.1.6l2.3.8a8 8 0 0 1 3.2 1.6 3.3 3.3 0 0 1 1 2.5 3.5 3.5 0 0 1-1.5 3 7.6 7.6 0 0 1-4.4 1 16.8 16.8 0 0 1-1.8 0 17.8 17.8 0 0 1-1.9-.3 11.7 11.7 0 0 1-1.6-.5l.5-2.1a14.8 14.8 0 0 0 2.5.6 15.4 15.4 0 0 0 2.4.2 4.4 4.4 0 0 0 2.2-.4 1.4 1.4 0 0 0 .8-1.3 1.2 1.2 0 0 0-.5-1 4.5 4.5 0 0 0-1.3-.6l-2.5-.8a6.9 6.9 0 0 1-2.9-1.6 3.5 3.5 0 0 1-.8-2.5 3.6 3.6 0 0 1 1.3-2.9 6.6 6.6 0 0 1 4.3-1.1 15.4 15.4 0 0 1 2.5.2 15.3 15.3 0 0 1 2 .4Zm1.7 8.1a8.9 8.9 0 0 1 .5-3 3.5 3.5 0 0 1 1.5-2 6 6 0 0 1 3-.5 6 6 0 0 1 3 .6 3.5 3.5 0 0 1 1.6 1.9 8.9 8.9 0 0 1 .5 3 6.7 6.7 0 0 1-1.1 4.3q-1.2 1.4-4 1.4-2.7 0-3.9-1.4a6.7 6.7 0 0 1-1-4.3Zm2.7 0a5.3 5.3 0 0 0 .6 2.8 2 2 0 0 0 1.8.8 2 2 0 0 0 1.7-.8 5.2 5.2 0 0 0 .6-2.8 5.4 5.4 0 0 0-.5-2.7 2 2 0 0 0-1.8-.8 2 2 0 0 0-1.9.8 5.4 5.4 0 0 0-.5 2.7Zm14.6 5.5v-14h2.8l3.8 7 3.9-7h2.7v14h-2.5v-10.2l-3.5 6.4h-1.3l-3.4-6.3v10Zm18.5.2a3.2 3.2 0 0 1-2.3-.8 3 3 0 0 1-.8-2.4v-7.8h2.6v7.2a1.3 1.3 0 0 0 1.5 1.6 3.4 3.4 0 0 0 1.1-.2 9.4 9.4 0 0 0 1.2-.5v-8.1h2.6v7.8a1.1 1.1 0 0 0 .2.7.5.5 0 0 0 .4.2 1.2 1.2 0 0 0 .5 0l.2 1.8a3.4 3.4 0 0 1-.8.3 3.7 3.7 0 0 1-1 .2 1.9 1.9 0 0 1-1.8-1.1 9.7 9.7 0 0 1-1.8.8 5.7 5.7 0 0 1-1.8.3Zm7.9-5.5a6 6 0 0 1 1.4-4.3 5.4 5.4 0 0 1 4-1.4 15.4 15.4 0 0 1 1.8 0 10.5 10.5 0 0 1 1.6.4l-.3 2-1.5-.2a12.6 12.6 0 0 0-1.3 0 3 3 0 0 0-2.2.7 3.9 3.9 0 0 0-.8 2.8 3.5 3.5 0 0 0 .8 2.6 3.2 3.2 0 0 0 2.2.7 13.1 13.1 0 0 0 1.4 0l1.5-.3.4 2a14.8 14.8 0 0 1-1.8.3 15.4 15.4 0 0 1-2 .2 5.2 5.2 0 0 1-4-1.4 5.7 5.7 0 0 1-1.2-4Zm10.5 5.3v-14.8h2.7v4.8a8.2 8.2 0 0 1 1.7-.8 5.5 5.5 0 0 1 1.7-.2 3.2 3.2 0 0 1 2.3.7 3 3 0 0 1 .8 2.3v8h-2.7v-7.1q0-1.7-1.5-1.7a3.7 3.7 0 0 0-1.2.2 9.5 9.5 0 0 0-1.1.5v8Zm-65.6 24v-14h2.8l3.8 7 3.9-7h2.7v14h-2.5v-10.2l-3.5 6.4h-1.3l-3.4-6.3v10Zm15-5.5a8.9 8.9 0 0 1 .4-3 3.5 3.5 0 0 1 1.5-2 6 6 0 0 1 3-.5 6 6 0 0 1 3.1.6 3.5 3.5 0 0 1 1.6 1.9 8.9 8.9 0 0 1 .4 3 6.7 6.7 0 0 1-1.1 4.3q-1.1 1.4-4 1.4-2.7 0-3.8-1.4a6.7 6.7 0 0 1-1.2-4.3Zm2.7 0a5.3 5.3 0 0 0 .5 2.8 2 2 0 0 0 1.8.8 2 2 0 0 0 1.7-.8 5.2 5.2 0 0 0 .6-2.8 5.4 5.4 0 0 0-.5-2.7 2 2 0 0 0-1.8-.8 2 2 0 0 0-1.8.8 5.4 5.4 0 0 0-.5 2.7Zm11.4-5.3v1.2a6.8 6.8 0 0 1 1.6-1 3.5 3.5 0 0 1 1.5-.4 4.8 4.8 0 0 1 1.5.2l-.4 2.4a6 6 0 0 0-1.5-.2 3.5 3.5 0 0 0-1.2.2 4.7 4.7 0 0 0-1.3.8v7.6h-2.6v-10.8Zm9.8 11a5.2 5.2 0 0 1-3.8-1.3 5.4 5.4 0 0 1-1.3-4 7.3 7.3 0 0 1 .7-3.5 4.2 4.2 0 0 1 1.9-1.9 6.2 6.2 0 0 1 2.7-.5 4.4 4.4 0 0 1 3.3 1.1 5.3 5.3 0 0 1 1.1 3.7v1l-1.7.2q-1 .2-2.4.1l-2.8.1a.6.6 0 0 0 0 .2v.1a2.5 2.5 0 0 0 .6 2 3.2 3.2 0 0 0 2.1.6 12.1 12.1 0 0 0 1.9-.2l1.9-.3.3 2a11.3 11.3 0 0 1-2.1.4 17 17 0 0 1-2.4.2Zm-2.3-6.7h2.6q1.2 0 1.6-.2a3 3 0 0 0-.5-1.9 1.8 1.8 0 0 0-1.4-.5 2.5 2.5 0 0 0-1 .2 1.9 1.9 0 0 0-.9.8 3.9 3.9 0 0 0-.4 1.6Zm8.2 5.1a1.2 1.2 0 0 1 1.5-1.4 1.5 1.5 0 0 1 1.1.3 1.5 1.5 0 0 1 .4 1.1 1.5 1.5 0 0 1-.4 1.1 1.5 1.5 0 0 1-1 .4 1.5 1.5 0 0 1-1.2-.4 1.5 1.5 0 0 1-.4-1Zm4.3 0a1.2 1.2 0 0 1 1.5-1.4 1.5 1.5 0 0 1 1.2.3 1.5 1.5 0 0 1 .3 1.1 1.5 1.5 0 0 1-.3 1.1 1.5 1.5 0 0 1-1.2.4 1.5 1.5 0 0 1-1.1-.4 1.5 1.5 0 0 1-.4-1Zm4.3 0a1.2 1.2 0 0 1 1.5-1.4 1.5 1.5 0 0 1 1.2.3 1.5 1.5 0 0 1 .3 1.1 1.5 1.5 0 0 1-.3 1.1 1.5 1.5 0 0 1-1.2.4 1.5 1.5 0 0 1-1.1-.4 1.5 1.5 0 0 1-.4-1Z" fill="#e21f26" data-name="Path 28749"/><path d="M7113.4 2162.4h226a.9.9 0 0 1 0 1.7l-226 .1a.9.9 0 0 1-.9-.9.9.9 0 0 1 .9-.9Z" fill="#da3c4a" data-name="Path 28629"/><path d="M2058.4-1740H2005a33 33 0 0 1-33-33 33 33 0 0 1 33-33h194a33 33 0 0 1 33 33 33 33 0 0 1-33 33Z" fill="url(#b)" data-name="Union 94" transform="translate(5080.6 3903.5)"/><path d="M7284 2030v97h-79v-97a39.4 39.4 0 0 1 39.4-39.5 39.4 39.4 0 0 1 39.5 39.4Z" fill="#c61b20" data-name="Rectangle 13304"/><path d="M7281 2097.2s41-.5 46.9 3c-1 4.3-55 8.7-55 8.7Z" fill="#b32024" data-name="Path 28387"/><path d="M7232.3 2162.8a9.2 9.2 0 0 1-4.3-.5c-20.7-7.4-30-22.8-32.9-33.3s1.4-25.5 16.6-30c8.5-2.5 14.2 1 17.7 4.6a42.4 42.4 0 0 1 3.5 4.2 42.5 42.5 0 0 1 3.5-4.2c3.5-3.6 9.1-7 17.7-4.6 15.2 4.5 19.4 19.5 16.6 30s-12.2 25.9-33 33.3a11 11 0 0 1-3.7.7 9 9 0 0 1-1.7-.2Z" fill="#fff" data-name="Union 92"/><g data-name="Group 21484"><g data-name="Group 21472"><path d="M7230.4 2033.9c-8.2 5-40.2 42.8-44 43.7s-.2 21.4 7.2 20.2 32.2-21.6 42.8-30 15.5-47-6-34Z" fill="#da3c4a" data-name="Path 28630"/><path d="m905.1 425.3.5 13.8a412 412 0 0 0 19.7-14.8c1-10.9.2-34.2-1.5-28.2a65.2 65.2 0 0 1-18.7 29.2Z" fill="#10a6d4" data-name="Path 28631" opacity=".4" style="mix-blend-mode:multiply;isolation:isolate" transform="translate(6301.2 1651.5)"/><path d="M7279.9 2021s28.8 9.8 31 14.4-12.2 68.2-12.2 88 .5 40.8.5 40.8h-74c3.3-45-5.4-77.8-3.8-96.6 1.4-16 6.1-30 9-33.7 3.2-4 22.4-12.2 22.4-12.2Z" fill="#dbdbdb" data-name="Path 28632"/><path d="m7279.9 2021 4 1.4s-18.3 27.9-36 22.3c-10-3.1 1.9-21.7 1.9-21.7l3-1.3Z" fill="#da3c4a" data-name="Path 28633"/><path d="M7222.7 2063.6h21.3v4h-21.3z" fill="#da3c4a" data-name="Rectangle 13301"/><path d="M774.7 505.8h73.9S848 485 848 465c0-16.9 10.4-65 12.2-82.1-3-3.5-7.8-8.1-12.4-6.2-4.8 2-8 9.4-9.8 13.9a87.5 87.5 0 0 0-4.6 19.3c-1.4 9.3-2.5 18.8-1.4 28.2.6 5 1.8 9.9 2.5 14.9a125.2 125.2 0 0 1 .9 18.4c0 5-.2 10.2-1.5 15s-4.1 9.7-8.4 12.4a17.5 17.5 0 0 1-18.2-.1 20.9 20.9 0 0 1-9.4-15.9c-.4-4 .4-8.2.4-12.3a37.3 37.3 0 0 0-26.2-35c1.8 18.1 4.6 41.7 2.6 70.2Z" fill="#bbb" data-name="Path 28634" opacity=".4" style="mix-blend-mode:multiply;isolation:isolate" transform="translate(6450.6 1658.4)"/><g data-name="Group 21471" transform="translate(7231 1950.6)"><path d="M49.2 46.5c-1 5.5-2.1 19-.3 23.9 0 0-13.4 19.9-27.4 20.6-11.3.5.2-19.8.2-19.8l3.7-14.5Z" fill="#f5d4d4" data-name="Path 28635"/><path d="M7 33.8c0 16.8 6.2 35 16.2 35 6.6 0 16.7-5.8 20.2-19.3 1.8-6.7 9.4-8.9 9.4-15.3 0-16.8-3.7-23.3-22-23.3-21 0-23.8 8.3-23.8 23Z" fill="#f8dddd" data-name="Path 28636"/><path d="M17.1 43c.4 1.6-3.2 9.4-2.3 10.4s3 1 3 1" fill="none" stroke="#263238" stroke-miterlimit="10" stroke-width=".5" data-name="Path 28637"/><path d="M14.5 56.7A23.1 23.1 0 0 0 24 56s-1.2 3.6-6.7 3.3a2.9 2.9 0 0 1-2.8-2.6Z" fill="#fff" data-name="Path 28638"/><path d="M14.7 32.7c-2.4-1-9.4 2.4-7.1 2 2.3-.3 4.3-1 6.8-.2 1.7.6 1.4-1.3.3-1.8Z" fill="#263238" data-name="Path 28639"/><ellipse fill="#263238" cx="1.6" cy="2.3" data-name="Ellipse 1381" rx="1.6" ry="2.3" transform="translate(10.5 36.4)"/><path d="M22.4 32.7c2.9-1 11.3 2.4 8.6 2-2.8-.3-5.2-1-8.2-.2-2 .6-1.7-1.3-.4-1.8Z" fill="#263238" data-name="Path 28640"/><path d="M29.6 38.7c0 1.2-.7 2.2-1.6 2.2s-1.7-1-1.7-2.2.8-2.3 1.7-2.3 1.6 1 1.6 2.3Z" fill="#263238" data-name="Path 28641"/><path d="M37.7 25s-1.7 8.8 3 16.7c0 0 4 13.8 7.3 14 2 .7 10.5-27 8.1-36.5S49.5 7.5 42.8 9.3c0 0-10.7-5.1-21.9-4.7S4 1.6 2.4.1c-1.1-1-.3 7.4.9 9.3A24.5 24.5 0 0 0 .3 5C-.8 4 .9 21.2 7.7 24c0 0 18.8-7.7 30 .8Z" fill="#0a0b0b" data-name="Path 28642"/><path d="M40.3 41.2c.9-2 4-6.7 7.2-4s.2 14.3-4.4 12.1-3.6-6.2-2.8-8.1Z" fill="#f8dddd" data-name="Path 28643"/><path d="M41.4 42c.5-1.5 1.9-4.6 4.9-3.8 2 .5 2 2.8 1.3 2.2s-.7-1-2.1-1.1c-1.4-.1-2.3 1.4-1.2 2 1.2.5 2.6 3 .5 4.4-1.5 1.1-3.1-2.5-3-1a2.3 2.3 0 0 0 .8 1.6c1 .6-2.6 0-1.2-4.4Z" fill="#e6bdbd" data-name="Path 28644"/></g><path d="M7310.9 2035.4c7 8.4 7.2 70.3 7.4 82.2.3 15.8-1.6 46.6-1.6 46.6h-23.2l.2-46.8c0-11.6-6.5-52.2-5-65.3s14-26.4 22.2-16.7Z" fill="#da3c4a" data-name="Path 28645"/></g><g data-name="Group 21475"><path d="M7210.1 2044.5c5.6 5.1 5 25 5 25s-13.6-13.6-12-17.9 2.4-11.4 7-7Z" fill="#e55274" data-name="Path 28646"/><path d="M7160 1989.9c-.6 6.6 1.3 12.8-.2 21.7-1 6.5-11 12.3-9.6 26.1.9 7.8 13.7 19.6 36.6 16.4s26.3-15 24.3-23-4.4-10.6-3-17.8 3-12.6 3-22c.2-7.7-3.5-16.6-15.5-19.2-6.3-1.4-11.5 8.7-19 12.5-6.8 3.5-16.3.5-16.7 5.3Z" fill="#0a0b0b" data-name="Path 28647"/><path d="M7170.1 2033.8s-21.1 7.1-23.3 11.7 10.7 63.5 10 84c-.6 20.6-6.3 27.4-6.7 34.7h65.2c-7.2-45.5 6.3-67.5 6-85.5-.4-16-11.2-19.3-11.2-34.2 0-1.6-19.6-9.9-19.6-9.9Z" fill="#dbdbdb" data-name="Path 28648"/><path d="M7188.7 2038.5a108 108 0 0 0 9.7 21c6 9.6 9 14.5 9.9 23s-7.6 25-7.2 38-.3 43.7-.3 43.7" fill="none" stroke="#bbb" stroke-miterlimit="10" stroke-width="1" data-name="Path 28649"/><path d="M7192 2035s4 4.9 2.1 7c-.9.8-4.2 1.2-5-2.7 0 0 .5 4.3-3.4 5-3.7.6-13.5-3.1-18.4-9.5l2.8-1 20.4.8Z" fill="#bbb" data-name="Path 28650"/><path d="M928.3 476.6a84.6 84.6 0 0 1-3.4 22.6c3.8-3.9 5.4-11.3 7.1-15.1 2.2-4.6 6.7-7.8 11.5-9.5a48.7 48.7 0 0 1 23.4-1c6.2 2.6 8.5 11.2 5.5 17.3-1.5 2.9-3.8 5.3-5.5 8a32.7 32.7 0 0 0-3.8 11.3v1.2h23.7c-5-32.2.2-52.6 3.5-68.2-4.5-.7-7.6-5-11-5.5-4.3-.7-10 3.7-14.3 4.7-7.6 1.8-12.4-.9-15.7-5.7s-.2-19.2-2.5-24.5a45 45 0 0 0-13.8-19.5c-2.4-1.7-8.3-1.6-14.4-.5a3 3 0 0 0-.3.5c-2.2 4.6 10.7 63.4 10 84Z" fill="#989898" data-name="Path 28651" opacity=".4" style="mix-blend-mode:multiply;isolation:isolate" transform="translate(6228.5 1652.9)"/><g data-name="Group 21474" transform="translate(7159.8 1971.6)"><path d="m11.5 38-1.2 24.2s11.4 4.4 17.4 3.7c4.9-.6 3-2.8 3-2.8l-1.3-15.3Z" fill="#f5d4d4" data-name="Path 28652"/><path d="M48.3 30.2c0 16.9-6.3 31-12.9 31.3-8.4.4-19-8.4-19.2-18.9-5-11.5-10-35.3 8.4-35.3 21 0 23.7 8.3 23.7 23Z" fill="#f8dddd" data-name="Path 28653"/><path d="M38 37.5c-.4 1.6 2.4 8.8 1.8 10-.3.6-2.6.8-2.6.8" fill="none" stroke="#263238" stroke-miterlimit="10" stroke-width=".5" data-name="Path 28654"/><path d="M42 51.7s-3.6 1.5-9.3-.7" fill="none" stroke="#263238" stroke-miterlimit="10" stroke-width=".5" data-name="Path 28655"/><path d="M41 29.6c3.5-1.7 7.9 1.6 7 1.4-1.3-.3-3-1.7-7 0-1.6.6-1-1 0-1.4Z" fill="#263238" data-name="Path 28656"/><path d="M34 29.6c-4.4-1.7-9.9 1.6-8.8 1.4 1.7-.3 3.9-1.7 8.7 0 2 .6 1.4-1 0-1.4Z" fill="#263238" data-name="Path 28657"/><path d="M45 35c0 1.3-.8 2.3-1.7 2.3s-1.7-1-1.7-2.2.8-2.3 1.7-2.3 1.6 1 1.6 2.3Z" fill="#263238" data-name="Path 28658"/><ellipse fill="#263238" cx="1.6" cy="2.3" data-name="Ellipse 1382" rx="1.6" ry="2.3" transform="translate(27 32.8)"/><path d="M30.7 17.4C32.7 29 19 37.9 15.3 38a11.4 11.4 0 0 0-.4 7.4C19 60 11.2 62 10.3 62.2 8.3 62.9-1.1 28 0 18.2S6.2 5.7 13 5.8C17 .7 26.2-.9 35.9.5c11 1.6 14.7 22 12.5 27.1 0-5-6.3-13-17.6-10.2Z" fill="#0a0b0b" data-name="Path 28659"/><g data-name="Group 21473"><path d="M18 38.4c-1-1.9-4.1-6.7-7.2-4s.6 12.4 4.3 12.2c5-.4 3.7-6.2 2.8-8.2Z" fill="#f8dddd" data-name="Path 28660"/><path d="M16.9 39.1c-.5-1.4-1.9-4.5-4.9-3.7-2 .5-2.1 2.8-1.3 2.3s.7-1 2.1-1.2c1.4-.1 2.3 1.4 1.2 2-1.3.5-2.6 3-.6 4.4 1.6 1.1 3.2-2.5 3-1a2.3 2.3 0 0 1-.7 1.6c-1.1.6 2.6 0 1.2-4.4Z" fill="#e6bdbd" data-name="Path 28661"/></g></g><path d="M7146.8 2045.6c-7 8.4 1 61 2.7 69.2 1 5 4.1 8.7 13.6 8.1a234 234 0 0 0 39.2-6.8l3.2-16.4s-37.4 6-37.6 5c-.8-5.7-.2-26.2.3-39.4.7-18.6-13.4-29.5-21.4-19.7Z" fill="#dbdbdb" data-name="Path 28662"/><path d="M7198.7 2100.9a23.7 23.7 0 0 0-1 16.4l4.6-1.2 3.2-16.4Z" fill="#e55274" data-name="Path 28663"/><path d="M7188 2051.6a1.4 1.4 0 1 0 1.5-1.4 1.4 1.4 0 0 0-1.5 1.4Z" fill="#bbb" data-name="Path 28664"/><path d="M7196.4 2066a1.4 1.4 0 1 0 1.5-1.5 1.4 1.4 0 0 0-1.5 1.5Z" fill="#bbb" data-name="Path 28665"/><path d="M7203 2084a1.4 1.4 0 1 0 1.5-1.4 1.4 1.4 0 0 0-1.4 1.4Z" fill="#bbb" data-name="Path 28666"/><path d="M7196.4 2146.7a1.4 1.4 0 1 0 1.5-1.4 1.4 1.4 0 0 0-1.5 1.4Z" fill="#e55274" data-name="Path 28667"/><path d="M7196.7 2122.3a1.4 1.4 0 1 0 1.5-1.5 1.4 1.4 0 0 0-1.5 1.5Z" fill="#e55274" data-name="Path 28668"/></g><g data-name="Group 21480"><path d="M7231.4 2141.6s13.2 2.7 16 5.7 5.5 17 5.5 17h-57.2s1.8-15 6.2-17.7 14.2-5 14.2-5Z" fill="#da3c4a" data-name="Path 28669"/><path d="m7231.4 2141.6 2.3.5s.2 12.4-10.1 12.3-9.6-12.3-9.6-12.3l2-.5Z" fill="#a72e42" data-name="Path 28670"/><path d="M7216 2141.6s-.3 10.4 7.8 10.4 7.6-10.4 7.6-10.4l-.6-9.3h-14Z" fill="#f5d4d4" data-name="Path 28671"/><path d="M7207.8 2120.2c0 9.9 7.1 21.5 16 21.5s16-11.6 16-21.5-7.2-14.5-16-14.5-16 4.5-16 14.5Z" fill="#f8dddd" data-name="Path 28672"/><path d="M7223.4 2107.6s1.5 7.2 15.5 13.7c0 0-.4 10-4.8 14.7h10s3.3-26.4-4.4-33.8a15 15 0 0 0-16.3-3.2s-11-3-15.6 3.2c-6 8.3-3.8 33.8-3.8 33.8h9.5s-5.6-8-5.7-15.1c3.8-.4-1.4-13.2 15.6-13.3Z" fill="#0a0b0b" data-name="Path 28673"/><path d="M7223.1 2125.8c.4.8-1.7 3.9-1.4 4.6.4.7 2 .5 2 .5" fill="none" stroke="#263238" stroke-miterlimit="10" stroke-width=".3" data-name="Path 28674"/><path d="M7227.8 2133a23.8 23.8 0 0 1-8 0 3.7 3.7 0 0 0 4 3.4 3.9 3.9 0 0 0 4-3.3Z" fill="#fff" data-name="Path 28675"/><g fill="#263238" data-name="Group 21476"><path d="M7219.9 2117.7c-3.8-1.4-8.5 1.5-7.6 1.3 1.5-.3 3.4-1.5 7.6 0 1.7.5 1.2-.9 0-1.3Z" data-name="Path 28676"/><path d="M7215.5 2122.5c0 1 .7 2 1.5 2s1.4-1 1.4-2-.7-2-1.4-2-1.5 1-1.5 2Z" data-name="Path 28677"/><path d="M7227.7 2117.7c3.7-1.4 8.5 1.5 7.6 1.3-1.5-.3-3.4-1.5-7.6 0-1.8.5-1.2-.9 0-1.3Z" data-name="Path 28678"/><path d="M7232 2122.5c0 1-.6 2-1.4 2s-1.4-1-1.4-2 .6-2 1.4-2 1.4 1 1.4 2Z" data-name="Path 28679"/></g><g data-name="Group 21479"><g data-name="Group 21477"><path d="M7210.6 2124.2c-.4-1.6-2.2-5.8-4-3.5s.5 9.3 2.5 10.6c2.3 1.6 2-5.4 1.5-7.1Z" fill="#f8dddd" data-name="Path 28680"/><path d="M7210 2124.9c-.2-1.3-1-4-2.7-3.3-1.1.4-1.2 2.5-.8 2s.5-1 1.2-1 1.3 1.2.7 1.6a3 3 0 0 0-.3 4c.9 1 1.8-2.3 1.7-1a2.6 2.6 0 0 1-.4 1.4c-.7.6 1.4 0 .6-3.7Z" fill="#e6bdbd" data-name="Path 28681"/></g><g data-name="Group 21478"><path d="M7237 2124.2c.4-1.6 2.2-5.8 4-3.5s-.5 9.3-2.5 10.6c-2.3 1.6-2-5.4-1.5-7.1Z" fill="#f8dddd" data-name="Path 28682"/><path d="M7237.5 2124.9c.3-1.3 1-4 2.8-3.3 1.1.4 1.2 2.5.7 2s-.4-1-1.2-1-1.2 1.2-.6 1.6a3 3 0 0 1 .3 4c-1 1-1.8-2.3-1.7-1a2.6 2.6 0 0 0 .4 1.4c.6.6-1.4 0-.7-3.7Z" fill="#e6bdbd" data-name="Path 28683"/></g></g><path d="m919.9 575.6-1.5-8.2-.9 8.2h-34.4l-1.6-10.4-2 10.4Z" fill="#10a6d4" data-name="Path 28684" opacity=".4" style="mix-blend-mode:multiply;isolation:isolate" transform="translate(6323.2 1588.6)"/></g><g data-name="Group 21482"><path d="m7202.7 2100.2-1.9 10.3c.3 4.7.6 5.4 1.5 5.6 1.3.2 4.2-3.2 4-7.2s-3.6-8.7-3.6-8.7Z" fill="#e55274" data-name="Path 28685"/><g data-name="Group 21481"><path d="M7202.7 2100.2a73.4 73.4 0 0 0 9.6-3.1 23.6 23.6 0 0 1 9.6-1.8c1.5.2 13.6 4 15.1 4.6s0 2.8-2.1 2.5l-2.1-.3s-.7.9-2.7.8a43 43 0 0 1-5.3-.8s-.3 1.1-2.5 1.1a14.8 14.8 0 0 0-5.8 1.2c-2 .7-1.8 2.4-4.8 4.1-1.9 1-4.2 1.1-5.4 1.4a40.4 40.4 0 0 0-5.4 1.8c-.3-5.4.4-8.8 1.8-11.5Z" fill="#f8dddd" data-name="Path 28686"/><path d="M7222.1 2097.3h-2.2l9.8 3Z" fill="#f5d4d4" data-name="Path 28687"/><path d="m7222.9 2101-8.2-.2 2.8-.6Z" fill="#f5d4d4" data-name="Path 28688"/><path d="M7201 2111.7a41 41 0 0 1 5.3-1.8l1.5-.2a11.5 11.5 0 0 0-3.5-.7 10.8 10.8 0 0 0-2.8.8s-.4-5.3.7-8.5a22 22 0 0 0-1.3 10.4Z" fill="#ff8d87" data-name="Path 28689"/></g></g><g fill="#f5d4d4" data-name="Group 21483"><path d="M7146 2051.2c-.9-.3-1.1-.7-1.1-.7a8.3 8.3 0 0 0-3.2 6c-.4 4.1 1 13 1 13l3 1.2Z" data-name="Path 28690"/><path d="M7146 2051.2s-3.6-.3-3.6 2.7 3.5 2.8 5.7 2.9 5-5.5-2-5.6Z" data-name="Path 28691"/><path d="M7145.4 2056.5c-1.7 0-4.3.1-4.3 3.2s4.1 2.6 6.5 2.8 5.6-6.1-2.2-6Z" data-name="Path 28692"/><path d="M7145.4 2062.3c-1.5 0-4.3.1-4.3 2.9s4.2 2.2 6.3 2.4 5-5.4-2-5.3Z" data-name="Path 28693"/><path d="M7145.7 2067.4c-1.2 0-3-.3-3 2s3 2.5 4.7 2.6 4.3-4.6-1.7-4.6Z" data-name="Path 28694"/></g></g><g data-name="Group 22688"><path d="M1977.7 2463.8c-3.6 2.4-25.2 3.5-40.8 4.1s-30.2 11-28.9 29.4 20 30 35.9 29.7 27 .3 35.7 0c.6-12.4 1.8-65.5-1.9-63.2Z" fill="url(#c)" data-name="Path 28701" transform="translate(5350 -363.7)"/><g data-name="Group 22680"><path d="M7294.2 2154.7a22.5 22.5 0 0 1-9.8-2 13.1 13.1 0 0 1-6.2-6.4q-2.2-4.4-2.2-12 0-7.5 2.1-12a12.9 12.9 0 0 1 6.2-6.4 22.6 22.6 0 0 1 9.8-2 23 23 0 0 1 10 2 12.8 12.8 0 0 1 6 6.4q2.2 4.4 2.2 11.9 0 7.6-2.2 12.1a13 13 0 0 1-6.2 6.4 22.6 22.6 0 0 1-9.7 2Z" fill="#fff" data-name="Path 28372"/><path d="M7282.5 2134.2a3.8 3.8 0 0 0 3.8 3.9h6l-1.4-1.1a5.4 5.4 0 0 1-1.9-3.8 2.6 2.6 0 0 1 1.3-2.5 2.6 2.6 0 0 1 3.3.6l.3.4.2-.3a2.6 2.6 0 0 1 4.5.7 3.3 3.3 0 0 1-.2 2.7 4.6 4.6 0 0 1-1.8 2l-3.6 2.1-1.5 1a2.7 2.7 0 0 0-1.3 1.8 3 3 0 0 0 0 1.5 3.8 3.8 0 0 0 .7 1 3.6 3.6 0 0 0 .2.3 3.8 3.8 0 0 0 6.6-2.7v-3.4a.3.3 0 0 1 .3-.3h3.4a3.8 3.8 0 0 0 0-7.7h-3.4a.3.3 0 0 1-.3-.3v-3.4a3.8 3.8 0 1 0-7.7 0v3.4a.3.3 0 0 1-.3.3h-3.4a3.8 3.8 0 0 0-3.8 3.8Z" fill="#d9041f" data-name="Path 28384"/></g></g></g></svg>